<?xml version="1.0" encoding="utf-8"?>
<!-- Generator: Adobe Illustrator 24.3.0, SVG Export Plug-In . SVG Version: 6.00 Build 0)  -->
<svg version="1.1" id="Layer_1" xmlns="http://www.w3.org/2000/svg" xmlns:xlink="http://www.w3.org/1999/xlink" x="0px" y="0px"
	 viewBox="0 0 612 792" style="enable-background:new 0 0 612 792;" xml:space="preserve">
<style type="text/css">
	.st0{fill:#134F02;}
</style>
<rect x="61" y="135" class="st0" width="486" height="21"/>
<path class="st0" d="M498.5,600.5H113V215h385.5V600.5z M486.55,228.18H126.18v358.38h360.38V228.18z"/>
<g>
	<path class="st0" d="M137.97,293h52.18v12.03h-39.82v24.13h33.99v11.33h-33.99v24.83h39.82v12.03h-52.18V293z"/>
	<path class="st0" d="M235.74,304.33h-22.39V293h57.16v11.33h-22.4v73h-12.37V304.33z"/>
	<path class="st0" d="M338.86,340.49h-32.4v36.85h-12.37V293h12.37v36.16h32.4V293h12.37v84.33h-12.37V340.49z"/>
	<path class="st0" d="M380.85,293h12.37v84.33h-12.37V293z"/>
	<path class="st0" d="M473.49,353.78c-1.79,7.82-5.21,13.82-10.26,18.02c-5.19,4.16-11.34,6.24-18.44,6.24
		c-6.42-0.15-11.78-1.77-16.07-4.86c-4.37-2.97-7.54-6.4-9.52-10.3c-0.6-1.27-1.14-2.49-1.62-3.64c-0.45-1.19-0.82-2.7-1.12-4.51
		c-0.56-3.39-0.84-9.91-0.84-19.55c0-9.79,0.28-16.35,0.84-19.67c0.6-3.32,1.51-6,2.74-8.04c1.98-3.89,5.15-7.37,9.53-10.41
		c4.29-3.08,9.66-4.67,16.08-4.74c7.88,0.08,14.31,2.48,19.27,7.22c4.97,4.77,8.1,10.69,9.41,17.73h-13.13
		c-1.01-3.4-2.84-6.3-5.5-8.69c-2.77-2.28-6.13-3.46-10.1-3.54c-2.92,0.08-5.42,0.68-7.52,1.8c-2.13,1.16-3.85,2.61-5.16,4.35
		c-1.61,1.82-2.67,4.15-3.2,7.01c-0.6,3.01-0.9,8.68-0.9,16.98c0,8.31,0.3,13.93,0.9,16.87c0.52,2.94,1.59,5.31,3.2,7.13
		c1.31,1.74,3.03,3.15,5.17,4.23c2.09,1.28,4.6,1.91,7.52,1.91c6.96,0,12.16-3.84,15.61-11.54H473.49z"/>
	<path class="st0" d="M211.37,503.7h-32.51l-6.58,19.79h-13.76L189.68,435h10.87l31.16,88.49h-13.7L211.37,503.7z M207.67,491.82
		l-12.4-38.71h-0.24l-12.4,38.71H207.67z"/>
	<path class="st0" d="M253.26,435h12.98v75.87h41.78v12.62h-54.76V435z"/>
	<path class="st0" d="M327.39,435h12.98v75.87h41.78v12.62h-54.76V435z"/>
	<path class="st0" d="M409.42,487.09L383.63,435h13.76l18.17,39.26L433.73,435h13.76l-25.81,52.08v36.42h-12.25V487.09z"/>
</g>
<g>
	<path class="st0" d="M164.9,618.4h13.36c3.39,0.03,5.94,0.91,7.64,2.64c1.72,1.74,2.58,4.04,2.58,6.91
		c0.03,1.46-0.31,2.87-1.02,4.2c-0.36,0.63-0.88,1.24-1.56,1.81c-0.68,0.6-1.51,1.15-2.51,1.64v0.1c1.88,0.5,3.3,1.52,4.27,3.05
		c0.9,1.58,1.35,3.3,1.35,5.15c-0.03,3.08-0.96,5.51-2.79,7.3c-1.81,1.87-4.08,2.81-6.79,2.81H164.9V618.4z M170.12,623.19v10.23
		h7.55c1.91,0,3.31-0.51,4.21-1.55c0.92-0.95,1.37-2.14,1.37-3.58s-0.46-2.66-1.37-3.66c-0.9-0.93-2.3-1.42-4.21-1.45H170.12z
		 M170.12,638.2v10.72h8.06c1.94-0.03,3.37-0.58,4.27-1.64c0.9-1.04,1.35-2.29,1.35-3.72c0-1.47-0.45-2.73-1.35-3.77
		c-0.9-1.03-2.32-1.56-4.27-1.59H170.12z"/>
	<path class="st0" d="M197.29,618.4h22.03v5.08h-16.81v10.18h14.35v4.78h-14.35v10.48h16.81V654h-22.03V618.4z"/>
	<path class="st0" d="M240.89,618.4h22.03v5.08h-16.81v10.18h14.35v4.78h-14.35v10.48h16.81V654h-22.03V618.4z"/>
	<path class="st0" d="M276.46,623.19h-9.45v-4.78h24.13v4.78h-9.46V654h-5.22V623.19z"/>
	<path class="st0" d="M316.39,638.45h-13.68V654h-5.22v-35.6h5.22v15.26h13.68V618.4h5.22V654h-5.22V638.45z"/>
	<path class="st0" d="M331.79,618.4h5.22V654h-5.22V618.4z"/>
	<path class="st0" d="M369.84,644.06c-0.76,3.3-2.2,5.83-4.33,7.6c-2.19,1.76-4.79,2.63-7.78,2.63c-2.71-0.07-4.97-0.75-6.78-2.05
		c-1.84-1.25-3.18-2.7-4.02-4.35c-0.25-0.54-0.48-1.05-0.69-1.54c-0.19-0.5-0.35-1.14-0.47-1.9c-0.24-1.43-0.35-4.18-0.35-8.25
		c0-4.13,0.12-6.9,0.36-8.3c0.25-1.4,0.64-2.53,1.16-3.39c0.83-1.64,2.18-3.11,4.02-4.39c1.81-1.3,4.08-1.97,6.79-2
		c3.33,0.03,6.04,1.05,8.13,3.05c2.1,2.02,3.42,4.51,3.97,7.48h-5.54c-0.43-1.44-1.2-2.66-2.32-3.67c-1.17-0.96-2.59-1.46-4.26-1.49
		c-1.23,0.03-2.29,0.29-3.17,0.76c-0.9,0.49-1.63,1.1-2.18,1.83c-0.68,0.77-1.13,1.75-1.35,2.96c-0.25,1.27-0.38,3.66-0.38,7.17
		s0.13,5.88,0.38,7.12c0.22,1.24,0.67,2.24,1.35,3.01c0.55,0.73,1.28,1.33,2.18,1.79c0.88,0.54,1.94,0.81,3.17,0.81
		c2.94,0,5.13-1.62,6.59-4.87H369.84z"/>
	<path class="st0" d="M393.96,646.04h-13.08l-2.65,7.96h-5.53l12.53-35.6h4.37l12.53,35.6h-5.51L393.96,646.04z M392.47,641.26
		l-4.99-15.57h-0.09l-4.99,15.57H392.47z"/>
	<path class="st0" d="M408.68,618.4h5.22v30.52h16.81V654h-22.03V618.4z"/>
	<path class="st0" d="M438.1,648.92h4.93V654l-4.93,3.71V648.92z"/>
	<path class="st0" d="M131.47,668.4h13.36c3.39,0.03,5.94,0.91,7.64,2.64c1.72,1.74,2.58,4.04,2.58,6.91
		c0.03,1.46-0.31,2.87-1.02,4.2c-0.36,0.63-0.88,1.24-1.56,1.81c-0.68,0.6-1.51,1.15-2.51,1.64v0.1c1.88,0.5,3.3,1.52,4.27,3.05
		c0.9,1.58,1.35,3.3,1.35,5.15c-0.03,3.08-0.96,5.51-2.79,7.3c-1.81,1.87-4.08,2.81-6.79,2.81h-14.53V668.4z M136.69,673.19v10.23
		h7.55c1.91,0,3.31-0.51,4.21-1.55c0.92-0.95,1.37-2.14,1.37-3.58s-0.46-2.66-1.37-3.66c-0.9-0.93-2.3-1.42-4.21-1.45H136.69z
		 M136.69,688.2v10.72h8.06c1.94-0.03,3.37-0.58,4.27-1.64c0.9-1.04,1.35-2.29,1.35-3.72c0-1.47-0.45-2.73-1.35-3.77
		c-0.9-1.03-2.32-1.56-4.27-1.59H136.69z"/>
	<path class="st0" d="M163.23,668.4h5.22v22.97c0.03,2.43,0.71,4.28,2.04,5.55c1.29,1.34,2.96,2,5,2c2.04,0,3.72-0.67,5.04-2
		c1.29-1.27,1.96-3.12,1.99-5.55V668.4h5.22v23.54c-0.06,3.74-1.24,6.71-3.52,8.91c-2.3,2.26-5.21,3.41-8.73,3.44
		c-3.45-0.03-6.34-1.18-8.66-3.44c-2.37-2.19-3.56-5.16-3.6-8.9V668.4z"/>
	<path class="st0" d="M203.26,689.36l-10.38-20.95h5.53l7.31,15.79l7.31-15.79h5.53l-10.38,20.95V704h-4.93V689.36z"/>
	<path class="st0" d="M238.04,668.4h22.03v5.08h-16.81v10.18h14.35v4.78h-14.35v10.48h16.81V704h-22.03V668.4z"/>
	<path class="st0" d="M273.61,673.19h-9.45v-4.78h24.13v4.78h-9.46V704h-5.22V673.19z"/>
	<path class="st0" d="M313.55,688.45h-13.68V704h-5.22v-35.6h5.22v15.26h13.68V668.4h5.22V704h-5.22V688.45z"/>
	<path class="st0" d="M328.95,668.4h5.22V704h-5.22V668.4z"/>
	<path class="st0" d="M367,694.06c-0.76,3.3-2.2,5.83-4.33,7.6c-2.19,1.76-4.79,2.63-7.78,2.63c-2.71-0.07-4.97-0.75-6.78-2.05
		c-1.84-1.25-3.18-2.7-4.02-4.35c-0.25-0.54-0.48-1.05-0.69-1.54c-0.19-0.5-0.35-1.14-0.47-1.9c-0.24-1.43-0.35-4.18-0.35-8.25
		c0-4.13,0.12-6.9,0.36-8.3c0.25-1.4,0.64-2.53,1.16-3.39c0.83-1.64,2.18-3.11,4.02-4.39c1.81-1.3,4.08-1.97,6.79-2
		c3.33,0.03,6.04,1.05,8.13,3.05c2.1,2.02,3.42,4.51,3.97,7.48h-5.54c-0.43-1.44-1.2-2.66-2.32-3.67c-1.17-0.96-2.59-1.46-4.26-1.49
		c-1.23,0.03-2.29,0.29-3.17,0.76c-0.9,0.49-1.63,1.1-2.18,1.83c-0.68,0.77-1.13,1.75-1.35,2.96c-0.25,1.27-0.38,3.66-0.38,7.17
		s0.13,5.88,0.38,7.12c0.22,1.24,0.67,2.24,1.35,3.01c0.55,0.73,1.28,1.33,2.18,1.79c0.88,0.54,1.94,0.81,3.17,0.81
		c2.94,0,5.13-1.62,6.59-4.87H367z"/>
	<path class="st0" d="M391.12,696.04h-13.08l-2.65,7.96h-5.53l12.53-35.6h4.37L399.3,704h-5.51L391.12,696.04z M389.63,691.26
		l-4.99-15.57h-0.09l-4.99,15.57H389.63z"/>
	<path class="st0" d="M405.84,668.4h5.22v30.52h16.81V704h-22.03V668.4z"/>
	<path class="st0" d="M435.55,668.4h5.22v30.52h16.81V704h-22.03V668.4z"/>
	<path class="st0" d="M464.82,689.36l-10.38-20.95h5.53l7.31,15.79l7.31-15.79h5.53l-10.38,20.95V704h-4.93V689.36z"/>
</g>
</svg>
